<?xml version="1.0" encoding="UTF-8"?>
<svg width="3300px" height="2200px" viewBox="0 0 3300 2200" version="1.1" xmlns="http://www.w3.org/2000/svg" xmlns:xlink="http://www.w3.org/1999/xlink">
    <!-- Generator: Sketch Beta 57 (83077) - https://sketch.com -->
    <title>Slice 1</title>
    <desc>Created with Sketch Beta.</desc>
    <g id="Page-1" stroke="none" stroke-width="1" fill="none" fill-rule="evenodd">
        <g id="tram.fill">
            <g id="Notes">
                <rect id="artboard" fill="#FFFFFF" fill-rule="nonzero" x="0" y="0" width="3300" height="2200"></rect>
                <path d="M263,292 L3036,292" id="Path" stroke="#000000" stroke-width="0.5"></path>
                <text id="Weight/Scale-Variations" fill="#000000" font-family="Helvetica-Bold, Helvetica" font-size="13" font-weight="bold">
                    <tspan x="263" y="322">Weight/Scale Variations</tspan>
                </text>
                <text id="Ultralight" fill="#000000" font-family="Helvetica" font-size="13" font-weight="normal">
                    <tspan x="533.711" y="322">Ultralight</tspan>
                </text>
                <text id="Thin" fill="#000000" font-family="Helvetica" font-size="13" font-weight="normal">
                    <tspan x="843.422" y="322">Thin</tspan>
                </text>
                <text id="Light" fill="#000000" font-family="Helvetica" font-size="13" font-weight="normal">
                    <tspan x="1138.63" y="322">Light</tspan>
                </text>
                <text id="Regular" fill="#000000" font-family="Helvetica" font-size="13" font-weight="normal">
                    <tspan x="1426.84" y="322">Regular</tspan>
                </text>
                <text id="Medium" fill="#000000" font-family="Helvetica" font-size="13" font-weight="normal">
                    <tspan x="1723.06" y="322">Medium</tspan>
                </text>
                <text id="Semibold" fill="#000000" font-family="Helvetica" font-size="13" font-weight="normal">
                    <tspan x="2015.77" y="322">Semibold</tspan>
                </text>
                <text id="Bold" fill="#000000" font-family="Helvetica" font-size="13" font-weight="normal">
                    <tspan x="2326.48" y="322">Bold</tspan>
                </text>
                <text id="Heavy" fill="#000000" font-family="Helvetica" font-size="13" font-weight="normal">
                    <tspan x="2618.19" y="322">Heavy</tspan>
                </text>
                <text id="Black" fill="#000000" font-family="Helvetica" font-size="13" font-weight="normal">
                    <tspan x="2917.4" y="322">Black</tspan>
                </text>
                <path d="M263,1903 L3036,1903" id="Path" stroke="#000000" stroke-width="0.5"></path>
                <g id="Group" transform="translate(264.000000, 1918.000000)" fill="#000000" fill-rule="nonzero">
                    <path d="M8.24805,15.830078 C12.5547,15.830078 16.1387,12.25586 16.1387,7.94922 C16.1387,3.6426 12.5449,0.0684 8.23828,0.0684 C3.94141,0.0684 0.36719,3.6426 0.36719,7.94922 C0.36719,12.25586 3.95117,15.830078 8.24805,15.830078 Z M8.24805,14.345703 C4.70312,14.345703 1.87109,11.50391 1.87109,7.94922 C1.87109,4.3945 4.69336,1.5527 8.23828,1.5527 C11.793,1.5527 14.6348,4.3945 14.6445252,7.94922 C14.6543,11.50391 11.8027,14.345703 8.24805,14.345703 Z M8.22852,11.57227 C8.69727,11.57227 8.9707,11.25977 8.9707,10.74219 L8.9707,8.68164 L11.1973,8.68164 C11.6953,8.68164 12.0371,8.42773 12.0371,7.95898 C12.0371,7.48047 11.7148,7.2168 11.1973,7.2168 L8.9707,7.2168 L8.9707,4.9902 C8.9707,4.4727 8.69727,4.1504 8.22852,4.1504 C7.75977,4.1504 7.50586,4.4922 7.50586,4.9902 L7.50586,7.2168 L5.29883,7.2168 C4.78125,7.2168 4.44922,7.48047 4.44922,7.95898 C4.44922,8.42773 4.80078,8.68164 5.29883,8.68164 L7.50586,8.68164 L7.50586,10.74219 C7.50586,11.24023 7.75977,11.57227 8.22852,11.57227 Z" id="Shape"></path>
                </g>
                <g id="Group" transform="translate(282.506000, 1915.000000)" fill="#000000" fill-rule="nonzero">
                    <path d="M10.709,20.91016 C16.1484,20.91016 20.6699,16.39844 20.6699,10.94922 C20.6699,5.5098 16.1387,0.9883 10.6992,0.9883 C5.25,0.9883 0.74805,5.5098 0.74805,10.94922 C0.74805,16.39844 5.25977,20.91016 10.709,20.91016 Z M10.709,19.25 C6.09961,19.25 2.41797,15.55859 2.41797,10.94922 C2.41797,6.3496 6.08984,2.6484 10.6992,2.6484 C15.2988,2.6484 19,6.3496 19.009819,10.94922 C19.0195,15.55859 15.3086,19.25 10.709,19.25 Z M10.6797,15.58789 C11.207,15.58789 11.5195,15.22656 11.5195,14.66016 L11.5195,11.76953 L14.5762,11.76953 C15.123,11.76953 15.5039,11.48633 15.5039,10.96875 C15.5039,10.44141 15.1426,10.13867 14.5762,10.13867 L11.5195,10.13867 L11.5195,7.0723 C11.5195,6.4961 11.207,6.1445 10.6797,6.1445 C10.1621,6.1445 9.8789,6.5156 9.8789,7.0723 L9.8789,10.13867 L6.83203,10.13867 C6.25586,10.13867 5.89453,10.44141 5.89453,10.96875 C5.89453,11.48633 6.28516,11.76953 6.83203,11.76953 L9.8789,11.76953 L9.8789,14.66016 C9.8789,15.20703 10.1621,15.58789 10.6797,15.58789 Z" id="Shape"></path>
                </g>
                <g id="Group" transform="translate(306.914000, 1913.000000)" fill="#000000" fill-rule="nonzero">
                    <path d="M12.9707,25.67383 C19.9336,25.67383 25.6855,19.921875 25.6855,12.95898 C25.6855,5.9961 19.9238,0.2441 12.9609,0.2441 C5.99805,0.2441 0.25586,5.9961 0.25586,12.95898 C0.25586,19.921875 6.00781,25.67383 12.9707,25.67383 Z M12.9707,23.85742 C6.92578,23.85742 2.08203,18.99414 2.08203,12.95898 C2.08203,6.9238 6.91602,2.0605 12.9609,2.0605 C18.9961,2.0605 23.8594,6.9238 23.8691148,12.95898 C23.8789,18.99414 19.0059,23.85742 12.9707,23.85742 Z M12.9414,18.93555 C13.5176,18.93555 13.8594,18.54492 13.8594,17.93945 L13.8594,13.86719 L18.0977,13.86719 C18.6934,13.86719 19.1133,13.53516 19.1133,12.97852 C19.1133,12.40234 18.7227,12.06055 18.0977,12.06055 L13.8594,12.06055 L13.8594,7.8125 C13.8594,7.1973 13.5176,6.8066 12.9414,6.8066 C12.3848,6.8066 12.0625,7.2168 12.0625,7.8125 L12.0625,12.06055 L7.82422,12.06055 C7.20898,12.06055 6.80859,12.40234 6.80859,12.97852 C6.80859,13.53516 7.23828,13.86719 7.82422,13.86719 L12.0625,13.86719 L12.0625,17.93945 C12.0625,18.52539 12.3848,18.93555 12.9414,18.93555 Z" id="Shape"></path>
                </g>
                <text id="Design-Variations" fill="#000000" font-family="Helvetica-Bold, Helvetica" font-size="13" font-weight="bold">
                    <tspan x="263" y="1953">Design Variations</tspan>
                </text>
                <text id="Symbols-are-supported-in-up-to-nine-weights-and-three-scales." fill="#000000" font-family="Helvetica" font-size="13" font-weight="normal">
                    <tspan x="263" y="1971">Symbols are supported in up to nine weights and three scales.</tspan>
                </text>
                <text id="For-optimal-layout-with-text-and-other-symbols,-vertically-align" fill="#000000" font-family="Helvetica" font-size="13" font-weight="normal">
                    <tspan x="263" y="1989">For optimal layout with text and other symbols, vertically align</tspan>
                </text>
                <text id="symbols-with-the-adjacent-text." fill="#000000" font-family="Helvetica" font-size="13" font-weight="normal">
                    <tspan x="263" y="2007">symbols with the adjacent text.</tspan>
                </text>
                <rect id="Rectangle" fill="#00AEEF" fill-rule="nonzero" opacity="0.4" x="776" y="1919" width="3" height="14"></rect>
                <g id="Group" transform="translate(779.000000, 1918.000000)" fill="#000000" fill-rule="nonzero">
                    <path d="M10.5273,15 L12.373,15 L7.17773,0.9082 L5.43945,0.9082 L0.244141,15 L2.08984,15 L3.50586,10.9668 L9.11133,10.9668 L10.5273,15 Z M6.2793,3.0469 L6.33789,3.0469 L8.59375,9.47266 L4.02344,9.47266 L6.2793,3.0469 Z" id="Shape"></path>
                </g>
                <rect id="Rectangle" fill="#00AEEF" fill-rule="nonzero" opacity="0.4" x="791.617" y="1919" width="3" height="14"></rect>
                <text id="Margins" fill="#000000" font-family="Helvetica-Bold, Helvetica" font-size="13" font-weight="bold">
                    <tspan x="776" y="1953">Margins</tspan>
                </text>
                <text id="Leading-and-trailing-margins-on-the-left-and-right-side-of-each-symbol" fill="#000000" font-family="Helvetica" font-size="13" font-weight="normal">
                    <tspan x="776" y="1971">Leading and trailing margins on the left and right side of each symbol</tspan>
                </text>
                <text id="can-be-adjusted-by-modifying-the-width-of-the-blue-rectangles." fill="#000000" font-family="Helvetica" font-size="13" font-weight="normal">
                    <tspan x="776" y="1989">can be adjusted by modifying the width of the blue rectangles.</tspan>
                </text>
                <text id="Modifications-are-automatically-applied-proportionally-to-all" fill="#000000" font-family="Helvetica" font-size="13" font-weight="normal">
                    <tspan x="776" y="2007">Modifications are automatically applied proportionally to all</tspan>
                </text>
                <text id="scales-and-weights." fill="#000000" font-family="Helvetica" font-size="13" font-weight="normal">
                    <tspan x="776" y="2025">scales and weights.</tspan>
                </text>
                <g id="Group" transform="translate(1291.000000, 1915.000000)" fill="#000000" fill-rule="nonzero">
                    <path d="M0.83203,21.61328 L2.375,23.15625 C3.22461,23.98633 4.19141,23.91797 5.05078,22.9707 L15.2754,11.83789 C15.6953,12.13086 16.0859,12.12109 16.5645,12.02344 L17.6094,11.80859 L18.3027,12.50195 L18.2539,13.01953 C18.1855,13.55664 18.3418,13.9668 18.8398,14.46484 L19.6602,15.27539 C20.1582,15.7832 20.8223,15.8125 21.3008,15.33398 L24.5527,12.08203 C25.0312,11.60352 25.002,10.94922 24.5039,10.44141 L23.6836,9.62109 C23.1855,9.12305 22.7656,8.94727 22.2383,9.02539 L21.7109,9.08398 L21.0469,8.41992 L21.3398,7.2773 C21.4766,6.7109 21.3301,6.252 20.7148,5.6465 L18.3027,3.2441 C14.7578,-0.2812 10.2168,-0.1738 7.11133,2.9609 C6.68164,3.3906 6.64258,3.9766 6.91602,4.4062 C7.14062,4.7773 7.61914,5.002 8.2734,4.8359 C9.7871,4.4551 11.3008,4.5723 12.7852,5.5781 L12.1602,7.1602 C11.9258,7.7461 11.9453,8.22461 12.1797,8.66406 L1.01758,18.9375 C0.08008,19.80664 -0.02734,20.75391 0.83203,21.61328 Z M8.6641,3.3516 C11.3301,1.3594 14.6504,1.6816 17.0527,4.084 L19.6797,6.6914 C19.9141,6.9258 19.9434,7.1113 19.875,7.4043 L19.5039,8.9668 L21.0762,10.53906 L22.0332,10.45117 C22.3164,10.42188 22.4043,10.44141 22.6387,10.66602 L23.2539,11.29102 L20.5098,14.04492 L19.8848,13.41992 C19.6602,13.19531 19.6406,13.10742 19.6699,12.82422 L19.7578,11.85742 L18.1953,10.29492 L16.5742,10.60742 C16.291,10.66602 16.1445,10.66602 15.9004,10.42188 L13.7324,8.24414 C13.498,8.00977 13.4688,7.873 13.5957,7.5605 L14.5527,5.2754 C12.9512,3.7422 10.832,2.8926 8.791,3.5469 C8.7031,3.5762 8.6445,3.5566 8.6152,3.5176 C8.5859,3.4688 8.5859,3.4199 8.6641,3.3516 Z M2.10156,20.91016 C1.60352,20.41211 1.7793,20.10938 2.11133,19.80664 L13.0781,9.68945 L14.2988,10.91992 L4.15234,21.84766 C3.84961,22.17969 3.46875,22.27734 3.05859,21.87695 L2.10156,20.91016 Z" id="Shape"></path>
                </g>
                <text id="Exporting" fill="#000000" font-family="Helvetica-Bold, Helvetica" font-size="13" font-weight="bold">
                    <tspan x="1289" y="1953">Exporting</tspan>
                </text>
                <text id="Symbols-should-be-outlined-when-exporting-to-ensure-the" fill="#000000" font-family="Helvetica" font-size="13" font-weight="normal">
                    <tspan x="1289" y="1971">Symbols should be outlined when exporting to ensure the</tspan>
                </text>
                <text id="design-is-preserved-when-submitting-to-Xcode." fill="#000000" font-family="Helvetica" font-size="13" font-weight="normal">
                    <tspan x="1289" y="1989">design is preserved when submitting to Xcode.</tspan>
                </text>
                <text id="template-version" fill="#000000" font-family="Helvetica" font-size="13" font-weight="normal">
                    <tspan x="2952" y="1933">Template v.1.0</tspan>
                </text>
                <text id="Generated-from-tram.fill" fill="#000000" font-family="Helvetica" font-size="13" font-weight="normal">
                    <tspan x="2899" y="1951">Generated from tram.fill</tspan>
                </text>
                <text id="Typeset-at-100-points" fill="#000000" font-family="Helvetica" font-size="13" font-weight="normal">
                    <tspan x="2912" y="1969">Typeset at 100 points</tspan>
                </text>
                <text id="Small" fill="#000000" font-family="Helvetica" font-size="13" font-weight="normal">
                    <tspan x="263" y="726">Small</tspan>
                </text>
                <text id="Medium" fill="#000000" font-family="Helvetica" font-size="13" font-weight="normal">
                    <tspan x="263" y="1156">Medium</tspan>
                </text>
                <text id="Large" fill="#000000" font-family="Helvetica" font-size="13" font-weight="normal">
                    <tspan x="263" y="1586">Large</tspan>
                </text>
            </g>
            <g id="Guides" transform="translate(263.000000, 625.000000)">
                <g id="H-reference" transform="translate(76.000000, 0.000000)" fill="#27AAE1" fill-rule="nonzero">
                    <path d="M54.9316,71 L57.666,71 L30.5664,0.541 L28.0762,0.541 L0.976562,71 L3.66211,71 L12.9395,46.5371 L45.7031,46.5371 L54.9316,71 Z M29.1992,3.9102 L29.4434,3.9102 L44.8242,44.291 L13.8184,44.291 L29.1992,3.9102 Z" id="Shape"></path>
                </g>
                <path d="M0,71 L2773,71" id="Baseline-S" stroke="#27AAE1" stroke-width="0.577"></path>
                <path d="M0,0.541 L2773,0.541" id="Capline-S" stroke="#27AAE1" stroke-width="0.577"></path>
                <g id="H-reference" transform="translate(76.000000, 430.000000)" fill="#27AAE1" fill-rule="nonzero">
                    <path d="M54.9316,71 L57.666,71 L30.5664,0.541 L28.0762,0.541 L0.976562,71 L3.66211,71 L12.9395,46.5371 L45.7031,46.5371 L54.9316,71 Z M29.1992,3.9102 L29.4434,3.9102 L44.8242,44.291 L13.8184,44.291 L29.1992,3.9102 Z" id="Shape"></path>
                </g>
                <path d="M0,501 L2773,501" id="Baseline-M" stroke="#27AAE1" stroke-width="0.577"></path>
                <path d="M0,430.54 L2773,430.54" id="Capline-M" stroke="#27AAE1" stroke-width="0.577"></path>
                <g id="H-reference" transform="translate(76.000000, 860.000000)" fill="#27AAE1" fill-rule="nonzero">
                    <path d="M54.9316,71 L57.666,71 L30.5664,0.541 L28.0762,0.541 L0.976562,71 L3.66211,71 L12.9395,46.5371 L45.7031,46.5371 L54.9316,71 Z M29.1992,3.9102 L29.4434,3.9102 L44.8242,44.291 L13.8184,44.291 L29.1992,3.9102 Z" id="Shape"></path>
                </g>
                <path d="M0,931 L2773,931" id="Baseline-L" stroke="#27AAE1" stroke-width="0.577"></path>
                <path d="M0,860.54 L2773,860.54" id="Capline-L" stroke="#27AAE1" stroke-width="0.577"></path>
                <rect id="left-margin" fill="#00AEEF" fill-rule="nonzero" opacity="0.4" x="1133.3" y="405.79" width="12.4512" height="119.336"></rect>
                <rect id="right-margin" fill="#00AEEF" fill-rule="nonzero" opacity="0.4" x="1227.93" y="405.79" width="12.4512" height="119.336"></rect>
            </g>
            <g id="Symbols" transform="translate(1399.000000, 622.000000)" fill="#000000">
                <g id="Regular-L" transform="translate(0.580000, 838.000000)">
                    <path d="M88.713,120.9648 C96.721,119.9395 101.42,114.455467 101.42,106 C101.42,91 101.42,29.941182 101.42,15 C101.42,7 96.7518758,0.19020302 88.713,0.115 C76.42,-1.40571582e-13 26.42,-2.32907443e-13 13.7617,0.115 C5.72596788,0.18800421 0.42,6.49745193 0.42,15 C0.42,30 0.42,91.0087251 0.42,106 C0.42,114 5.7539,119.8906 13.7617,120.9648 C16.252,121.3066 86.223,121.3066 88.713,120.9648 Z M36.6427354,19.7666667 C34.7383849,19.7666667 33.42,17.8258471 33.42,14.9328792 C33.42,12.0399863 34.7383849,10.0991667 36.6427354,10.0991667 L66.0624646,10.0991667 C67.9669651,10.0991667 69.285,12.0399863 69.285,14.9328792 C69.285,17.8258471 67.9669651,19.7666667 66.0624646,19.7666667 L36.6427354,19.7666667 Z M52.938643,28.0806211 L94.92,28.08 C95.4722847,28.08 95.92,28.5277153 95.92,29.08 L95.92,47.08 L95.9195898,47.1058932 C95.9198627,47.23231 95.92,47.3587774 95.92,47.485275 C95.92,52.595459 95.6869103,57.8078927 95.3366781,61.4872085 C95.102393,63.991228 93.1181422,65.7286361 90.0831947,66.0863532 C79.0523139,67.3128267 65.2195754,68.0793333 50.9199402,68.0793333 C38.0211144,68.0793333 23.4296988,67.2617541 11.6981145,66.0863532 C8.66316702,65.7798133 6.73712884,63.991228 6.44522881,61.4872085 C6.09499658,57.8078927 5.92,52.595459 5.92,47.485275 L5.92099244,46.8058001 L5.92099244,46.8058001 L5.92,29.08 C5.92,28.5277153 6.36771525,28.08 6.92,28.08 L48.8866138,28.0806211 C50.2363579,28.0789041 51.5889929,28.0789041 52.938643,28.0806211 Z M14.9421003,104 C9.81192372,104 5.92,100.098518 5.92,94.9999846 C5.92,89.9014146 9.81192372,86 14.9421003,86 C20.0280763,86 23.92,89.9014146 23.92,94.9999846 C23.92,100.098518 20.0280763,104 14.9421003,104 Z M86.9198638,103.999722 C81.7770456,103.999722 77.92,100.098301 77.92,94.9998456 C77.92,89.9013544 81.7770456,86 86.9198638,86 C92.0182824,86 95.92,89.9013544 95.92,94.9998456 C95.92,100.098301 92.0182824,103.999722 86.9198638,103.999722 Z" id="Shape" fill-rule="nonzero"></path>
                    <rect id="Rectangle" fill-rule="nonzero" x="0.42" y="115" width="17" height="17" rx="8.5"></rect>
                    <rect id="Rectangle" x="0.42" y="109" width="17" height="15"></rect>
                    <rect id="Rectangle" fill-rule="nonzero" x="0.42" y="98" width="2" height="19" rx="1"></rect>
                    <rect id="Rectangle" fill-rule="nonzero" x="84.42" y="110" width="17" height="22" rx="8.5"></rect>
                    <rect id="Rectangle" fill-rule="nonzero" x="99.42" y="101" width="2" height="19" rx="1"></rect>
                </g>
                <g id="Regular-M" transform="translate(9.300000, 421.000000)" fill-rule="nonzero">
                    <rect id="Rectangle" x="0.7" y="83" width="13.7083333" height="22" rx="6.85416667"></rect>
                    <rect id="Rectangle" x="0.7" y="74" width="2" height="19" rx="1"></rect>
                    <rect id="Rectangle" x="68.99" y="83" width="13.7083333" height="22" rx="6.85416667"></rect>
                    <rect id="Rectangle" x="80.7" y="74" width="2" height="19" rx="1"></rect>
                    <path d="M70.8613,94.9164263 C77.209,94.1348831 82.7,89.0333595 82.7,83.031108 C82.7,71.3113084 82.6289,59.7957924 82.6289,47.7307667 C82.6289,35.6168227 82.7,23.6753968 82.7,12.0044656 C82.7,5.00183886 77.2442495,0.676193382 70.8613,0.398512124 C61.7,-3.73745035e-05 21.7,-3.73745035e-05 12.1699,0.398512124 C5.83953302,0.663248546 0.7,5.00183886 0.7,12.0044656 C0.7,23.6753968 0.4512,35.6168227 0.4512,47.7307667 C0.4512,59.7957924 0.7,71.310409 0.7,83.031108 C0.7,89.0333595 5.8711,94.0860348 12.1699,94.9164263 C13.9277,95.1606579 69.1523,95.1606579 70.8613,94.9164263 Z M30.2388916,15.5708333 C28.725336,15.5708333 27.7,14.0319948 27.7,11.7603546 C27.7,9.45217186 28.725336,7.91333333 30.2388916,7.91333333 L53.1867099,7.91333333 C54.7002655,7.91333333 55.75,9.45217186 55.75,11.7603546 C55.75,14.0319948 54.7002655,15.5708333 53.1867099,15.5708333 L30.2388916,15.5708333 Z M75.58,22 C76.1322847,22 76.58,22.4477153 76.58,23 L76.58,35 L76.5743006,35.1095587 C76.5781393,35.596333 76.58,36.0863192 76.58,36.5771024 C76.58,40.3582683 76.4636689,44.2388795 76.1730198,46.8258857 C75.9985827,48.815914 74.3125559,50.2587889 71.8706746,50.5075043 C63.3823154,51.4030221 52.4520749,52 41.5800595,52 C31.4055544,52 20.1265588,51.3532994 11.3474314,50.5075043 C8.84744414,50.2587889 7.21952331,48.815914 6.98698021,46.8258857 C6.7544371,44.2388795 6.58,40.3582683 6.58,36.5771024 C6.58,36.0916903 6.58272935,35.6070578 6.58796038,35.1255415 C6.58266613,35.0846151 6.58,35.0426189 6.58,35 L6.58,23 C6.58,22.4477153 7.02771525,22 7.58,22 L75.58,22 Z M69.542,81.063964 C65.5426034,81.063964 62.51,78.0313966 62.51,74.032 C62.51,70.0764381 65.5426034,67 69.542,67 C73.4975619,67 76.574,70.0764381 76.574,74.032 C76.574,78.0313966 73.4975619,81.063964 69.542,81.063964 Z M13.612,81.063964 C9.61251343,81.063964 6.58,78.0313966 6.58,74.032 C6.58,70.0764381 9.61251343,67 13.612,67 C17.5674719,67 20.644,70.0764381 20.644,74.032 C20.644,78.0313966 17.5674719,81.063964 13.612,81.063964 Z" id="Shape"></path>
                </g>
                <g id="Regular-S" transform="translate(18.390000, 0.000000)">
                    <path d="M55.625,75.8598445 C60.7031,75.2231104 64.61,71.2166124 64.61,66.2011421 C64.61,56.9569158 64.61,20.3266851 64.61,11.0309693 C64.61,6.015499 60.7357229,0.949225755 55.625,0.970044363 C48.61,1.00002874 17.61,1.00002874 9.1895,0.970044363 C4.13153566,0.952983921 0.61,6.015499 0.61,11.0309693 C0.61,20.3259937 0.61,56.9585434 0.61,66.2011421 C0.61,71.2166124 4.1602,75.1741294 9.1895,75.8598445 C10.4102,76.0067777 54.4531,76.0067777 55.625,75.8598445 Z M23.6365374,13.3433333 C22.4401768,13.3433333 21.61,12.0988399 21.61,10.2687555 C21.61,8.43867107 22.4401768,7.23083333 23.6365374,7.23083333 L41.7290604,7.23083333 C42.9498732,7.23083333 43.78,8.43867107 43.78,10.2687555 C43.78,12.0988399 42.9498732,13.3433333 41.7290604,13.3433333 L23.6365374,13.3433333 Z M59.46,17.98 C60.0122847,17.98 60.46,18.4277153 60.46,18.98 L60.46,28.43 L60.45821,28.4779235 C60.4593961,28.6903603 60.46,28.9036618 60.46,29.1174667 C60.46,31.9983667 60.3428043,34.9280667 60.1668908,36.7346667 C59.9909772,38.3948667 58.5251909,39.5667667 56.5316639,39.7620667 C49.8476687,40.3967667 40.994353,40.8850667 32.61006,40.8850667 C24.3429628,40.8850667 15.4309292,40.3967667 8.68833614,39.7620667 C6.63621128,39.5667667 5.2290228,38.3948667 5.05310923,36.7346667 C4.87731574,34.9280667 4.76,31.9983667 4.76,29.1174667 C4.76,28.9003054 4.76062363,28.6836634 4.76184808,28.4679192 C4.76024513,28.4557886 4.76,28.4429229 4.76,28.43 L4.76,18.98 C4.76,18.4277153 5.20771525,17.98 5.76,17.98 L59.46,17.98 Z M9.91696768,64.21 C6.75182087,64.21 4.29,61.7481791 4.29,58.5830323 C4.29,55.4178855 6.75182087,53 9.91696768,53 C13.0381791,53 15.5,55.4178855 15.5,58.5830323 C15.5,61.7481791 13.0381791,64.21 9.91696768,64.21 Z M55.3200452,64.21 C52.1423284,64.21 49.715,61.7481791 49.715,58.5830323 C49.715,55.4178855 52.1423284,53 55.3200452,53 C58.4976716,53 60.925,55.4178855 60.925,58.5830323 C60.925,61.7481791 58.4976716,64.21 55.3200452,64.21 Z" id="Shape" fill-rule="nonzero"></path>
                    <rect id="Rectangle" fill-rule="nonzero" x="0.61" y="71.33" width="11" height="11" rx="5.5"></rect>
                    <rect id="Rectangle" x="0.61" y="67" width="11" height="10"></rect>
                    <rect id="Rectangle" fill-rule="nonzero" x="0.61" y="58" width="2" height="19" rx="1"></rect>
                    <rect id="Rectangle" fill-rule="nonzero" x="53.61" y="65" width="11" height="17" rx="5.5"></rect>
                    <rect id="Rectangle" fill-rule="nonzero" x="62.61" y="57" width="2" height="19" rx="1"></rect>
                </g>
            </g>
        </g>
    </g>
</svg>