<?xml version="1.0" encoding="UTF-8"?>
<svg width="50px" height="80px" viewBox="0 0 50 80" version="1.1" xmlns="http://www.w3.org/2000/svg" xmlns:xlink="http://www.w3.org/1999/xlink">
    <!-- Generator: Sketch Beta 63 (92387) - https://sketch.com -->
    <title>noun_Bus_613513</title>
    <desc>Created with Sketch Beta.</desc>
    <g id="Page-1" stroke="none" stroke-width="1" fill="none" fill-rule="evenodd">
        <g id="noun_Bus_613513" fill="#FFFFFF" fill-rule="nonzero">
            <path d="M48.816,21.251 C48.804,21.033 48.793,20.807 48.781,20.592 C48.474,15.072 48.568,10.786 48.5,9.5 C48.366,6.923 47.645,4.411 45,3 C40.305,0.509 28.848,1 25,1 C21.153,1 9.694,0.508 5,3 C2.354,4.411 1.634,6.923 1.5,9.5 C1.431,10.786 1.526,15.073 1.22,20.593 L1.219,20.593 C1.207,20.807 1.196,21.034 1.184,21.252 C0.892,26.646 0.625,32.465 0.625,38.388 C0.625,42.675 0.625,48.918 0.625,54.415 C0.625,61.263 0.625,77.914 0.625,77.914 C0.625,79.071 1.223,80.001 3.975,80.001 C6.727,80.001 7.288,79.071 7.288,77.914 L7.288,74.65 L25,74.65 L42.712,74.65 L42.712,77.913 C42.712,79.07 43.274,80 46.025,80 C48.776,80 49.375,79.07 49.375,77.913 C49.375,77.913 49.375,61.262 49.375,54.414 C49.375,48.917 49.375,42.674 49.375,38.387 C49.375,32.464 49.108,26.645 48.816,21.251 Z M3.923,9.486 L46.081,9.486 C46.083,9.524 46.579,16.988 46.778,20.592 L3.224,20.592 C3.424,16.997 3.923,9.486 3.923,9.486 Z M40.007,24.49 L40.007,34.49 L10.007,34.49 L10.007,24.49 L40.007,24.49 Z M6.181,69.699 C4.801,69.699 3.683,68.579 3.683,67.199 C3.683,65.818 4.801,64.699 6.181,64.699 C7.565,64.699 8.683,65.818 8.683,67.199 C8.683,68.579 7.564,69.699 6.181,69.699 Z M9.62,73.324 C8.995,73.324 8.488,72.812 8.488,72.183 C8.488,71.555 8.995,71.051 9.62,71.051 C10.256,71.051 10.7660015,71.555 10.7660015,72.183 C10.767,72.812 10.256,73.324 9.62,73.324 Z M40.375,73.324 C39.74,73.324 39.234,72.812 39.234,72.183 C39.234,71.555 39.74,71.051 40.375,71.051 C41.001,71.051 41.512,71.555 41.512,72.183 C41.512,72.812 41.001,73.324 40.375,73.324 Z M2.62660246,62.666 C2.62660246,62.666 2.62660246,38.5368881 2.62660246,38.387 L47.371,38.387 C47.372,38.597 47.374,62.666 47.374,62.666 L2.62660246,62.666 Z M46.317,66.615 C46.317,67.996 45.198,69.115 43.817,69.115 C42.436,69.115 41.317,67.996 41.317,66.615 C41.317,65.235 42.436,64.115 43.817,64.115 C45.198,64.115 46.317,65.235 46.317,66.615 Z" id="Shape"></path>
        </g>
    </g>
</svg>